HIERARCHY
ROOT Hips
{
	OFFSET 0.000000 83.214638 0.000000
	CHANNELS 6 Xposition Yposition Zposition Xrotation Yrotation Zrotation
	JOINT Pelvis
	{
		OFFSET 0.000000 0.000000 0.000000
		CHANNELS 3 Xrotation Yrotation Zrotation
		JOINT LeftUpLeg
		{
			OFFSET 8.479700 -4.795502 -0.379100
			CHANNELS 3 Xrotation Yrotation Zrotation
			JOINT LeftLeg
			{
				OFFSET 0.024144 -32.555107 0.112900
				CHANNELS 3 Xrotation Yrotation Zrotation
				JOINT LeftFoot
				{
					OFFSET -0.024144 -32.638630 -3.012600
					CHANNELS 3 Xrotation Yrotation Zrotation
					JOINT LeftToeBase
					{
						OFFSET 0.970200 -13.225400 11.864200
						CHANNELS 3 Xrotation Yrotation Zrotation
						End Site
						{
							OFFSET 0.000000 12.319262 0.000000
						}
					}
					JOINT LFootTongue
					{
						OFFSET 1.142400 -1.059800 6.665200
						CHANNELS 3 Xrotation Yrotation Zrotation
						End Site
						{
							OFFSET 0.000000 12.319262 0.000000
						}
					}
				}
				JOINT LeftPantLeg
				{
					OFFSET 0.918482 -16.533964 -2.284700
					CHANNELS 3 Xrotation Yrotation Zrotation
					End Site
					{
						OFFSET 0.350399 24.744368 0.000000
					}
				}
			}
		}
		JOINT RightUpLeg
		{
			OFFSET -8.479700 -4.795502 -0.379100
			CHANNELS 3 Xrotation Yrotation Zrotation
			JOINT RightLeg
			{
				OFFSET -0.023144 -32.555092 0.112900
				CHANNELS 3 Xrotation Yrotation Zrotation
				JOINT RightFoot
				{
					OFFSET 0.023144 -32.638641 -3.012700
					CHANNELS 3 Xrotation Yrotation Zrotation
					JOINT RightToeBase
					{
						OFFSET -0.970200 -13.225400 11.864200
						CHANNELS 3 Xrotation Yrotation Zrotation
						End Site
						{
							OFFSET 0.000000 12.319244 0.000000
						}
					}
					JOINT RFootTongue
					{
						OFFSET -1.142200 -1.059800 6.665200
						CHANNELS 3 Xrotation Yrotation Zrotation
						End Site
						{
							OFFSET 0.000000 12.319243 0.000000
						}
					}
				}
				JOINT RightPantLeg
				{
					OFFSET -0.919482 -16.533978 -2.284800
					CHANNELS 3 Xrotation Yrotation Zrotation
					End Site
					{
						OFFSET -0.350400 24.744419 0.000000
					}
				}
			}
		}
	}
	JOINT Spine
	{
		OFFSET 0.000000 7.722000 1.166200
		CHANNELS 3 Xrotation Yrotation Zrotation
		JOINT Spine1
		{
			OFFSET 0.000000 12.024101 0.248800
			CHANNELS 3 Xrotation Yrotation Zrotation
			JOINT Spine2
			{
				OFFSET 0.000000 11.502998 -0.491200
				CHANNELS 3 Xrotation Yrotation Zrotation
				JOINT Neck
				{
					OFFSET 0.000000 18.430702 -3.123100
					CHANNELS 3 Xrotation Yrotation Zrotation
					JOINT Head
					{
						OFFSET 0.000000 9.051102 1.034000
						CHANNELS 3 Xrotation Yrotation Zrotation
						JOINT HairB
						{
							OFFSET 0.208400 24.786102 24.822300
							CHANNELS 3 Xrotation Yrotation Zrotation
							End Site
							{
								OFFSET 0.000000 32.263779 0.000000
							}
						}
						JOINT HairA
						{
							OFFSET -7.081100 24.428299 23.196600
							CHANNELS 3 Xrotation Yrotation Zrotation
							End Site
							{
								OFFSET 0.000000 32.263779 0.000000
							}
						}
						JOINT Hat
						{
							OFFSET 16.728800 15.048294 -15.439601
							CHANNELS 3 Xrotation Yrotation Zrotation
							End Site
							{
								OFFSET 0.000000 32.263779 0.000000
							}
						}
					}
				}
				JOINT LeftShoulder
				{
					OFFSET 6.197800 13.665199 -4.064700
					CHANNELS 3 Xrotation Yrotation Zrotation
					JOINT LeftArm
					{
						OFFSET 7.778100 -0.187103 -1.709300
						CHANNELS 3 Xrotation Yrotation Zrotation
						JOINT LeftForeArm
						{
							OFFSET 22.049376 0.000000 0.000000
							CHANNELS 3 Xrotation Yrotation Zrotation
							JOINT LeftHand
							{
								OFFSET 23.009392 0.000000 0.000000
								CHANNELS 3 Xrotation Yrotation Zrotation
								JOINT LeftHandThumb1
								{
									OFFSET 3.507191 -2.063065 3.133727
									CHANNELS 3 Xrotation Yrotation Zrotation
									JOINT LeftHandThumb2
									{
										OFFSET 3.101337 -1.790558 1.790558
										CHANNELS 3 Xrotation Yrotation Zrotation
										JOINT LeftHandThumb3
										{
											OFFSET 3.058640 -1.765907 1.765906
											CHANNELS 3 Xrotation Yrotation Zrotation
											End Site
											{
												OFFSET -0.415260 3.926476 -0.049563
											}
										}
									}
								}
								JOINT LeftHandIndex1
								{
									OFFSET 11.334419 -0.901459 3.706815
									CHANNELS 3 Xrotation Yrotation Zrotation
									JOINT LeftHandIndex2
									{
										OFFSET 3.283112 0.000000 0.000000
										CHANNELS 3 Xrotation Yrotation Zrotation
										JOINT LeftHandIndex3
										{
											OFFSET 3.323853 0.000000 0.000000
											CHANNELS 3 Xrotation Yrotation Zrotation
											End Site
											{
												OFFSET -1.135597 3.097809 0.402452
											}
										}
									}
								}
								JOINT LeftHandMiddle1
								{
									OFFSET 11.335861 0.000000 0.000000
									CHANNELS 3 Xrotation Yrotation Zrotation
									JOINT LeftHandMiddle2
									{
										OFFSET 3.410492 0.000000 0.000000
										CHANNELS 3 Xrotation Yrotation Zrotation
										JOINT LeftHandMiddle3
										{
											OFFSET 3.312172 0.000000 0.000000
											CHANNELS 3 Xrotation Yrotation Zrotation
											End Site
											{
												OFFSET -1.150200 3.080154 0.400270
											}
										}
									}
								}
								JOINT LeftHandRing1
								{
									OFFSET 11.514786 -0.013176 -3.003090
									CHANNELS 3 Xrotation Yrotation Zrotation
									JOINT LeftHandRing2
									{
										OFFSET 3.053307 0.000000 0.000000
										CHANNELS 3 Xrotation Yrotation Zrotation
										JOINT LeftHandRing3
										{
											OFFSET 3.295807 0.000000 0.000000
											CHANNELS 3 Xrotation Yrotation Zrotation
											End Site
											{
												OFFSET -1.281006 3.013344 0.375733
											}
										}
									}
								}
								JOINT LeftHandPinky1
								{
									OFFSET 10.518692 -0.960396 -5.730441
									CHANNELS 3 Xrotation Yrotation Zrotation
									JOINT LeftHandPinky2
									{
										OFFSET 2.861649 0.000000 0.000000
										CHANNELS 3 Xrotation Yrotation Zrotation
										JOINT LeftHandPinky3
										{
											OFFSET 2.863380 0.000000 0.000000
											CHANNELS 3 Xrotation Yrotation Zrotation
											End Site
											{
												OFFSET -0.843597 2.711159 0.369971
											}
										}
									}
								}
							}
							JOINT LSleeve
							{
								OFFSET 6.676277 -0.344902 -1.011730
								CHANNELS 3 Xrotation Yrotation Zrotation
								End Site
								{
									OFFSET 0.000000 14.885353 0.000000
								}
							}
						}
					}
				}
				JOINT RightShoulder
				{
					OFFSET -6.197800 13.665199 -4.064700
					CHANNELS 3 Xrotation Yrotation Zrotation
					JOINT RightArm
					{
						OFFSET -7.778100 -0.187103 -1.709300
						CHANNELS 3 Xrotation Yrotation Zrotation
						JOINT RightForeArm
						{
							OFFSET -22.049376 0.000000 0.000000
							CHANNELS 3 Xrotation Yrotation Zrotation
							JOINT RightHand
							{
								OFFSET -23.009392 0.000000 0.000000
								CHANNELS 3 Xrotation Yrotation Zrotation
								JOINT RightHandThumb1
								{
									OFFSET -3.507191 -2.063065 3.133727
									CHANNELS 3 Xrotation Yrotation Zrotation
									JOINT RightHandThumb2
									{
										OFFSET -3.101337 -1.790558 1.790558
										CHANNELS 3 Xrotation Yrotation Zrotation
										JOINT RightHandThumb3
										{
											OFFSET -3.058640 -1.765907 1.765906
											CHANNELS 3 Xrotation Yrotation Zrotation
											End Site
											{
												OFFSET 0.415260 3.926476 -0.049563
											}
										}
									}
								}
								JOINT RightHandIndex1
								{
									OFFSET -11.334419 -0.901459 3.706815
									CHANNELS 3 Xrotation Yrotation Zrotation
									JOINT RightHandIndex2
									{
										OFFSET -3.283112 0.000000 0.000000
										CHANNELS 3 Xrotation Yrotation Zrotation
										JOINT RightHandIndex3
										{
											OFFSET -3.323853 0.000000 0.000000
											CHANNELS 3 Xrotation Yrotation Zrotation
											End Site
											{
												OFFSET 1.135597 3.097809 0.402452
											}
										}
									}
								}
								JOINT RightHandMiddle1
								{
									OFFSET -11.335861 0.000000 0.000000
									CHANNELS 3 Xrotation Yrotation Zrotation
									JOINT RightHandMiddle2
									{
										OFFSET -3.410492 0.000000 0.000000
										CHANNELS 3 Xrotation Yrotation Zrotation
										JOINT RightHandMiddle3
										{
											OFFSET -3.312172 0.000000 0.000000
											CHANNELS 3 Xrotation Yrotation Zrotation
											End Site
											{
												OFFSET 1.150200 3.080154 0.400270
											}
										}
									}
								}
								JOINT RightHandRing1
								{
									OFFSET -11.514786 -0.013176 -3.003090
									CHANNELS 3 Xrotation Yrotation Zrotation
									JOINT RightHandRing2
									{
										OFFSET -3.053307 0.000000 0.000000
										CHANNELS 3 Xrotation Yrotation Zrotation
										JOINT RightHandRing3
										{
											OFFSET -3.295807 0.000000 0.000000
											CHANNELS 3 Xrotation Yrotation Zrotation
											End Site
											{
												OFFSET 1.281006 3.013344 0.375733
											}
										}
									}
								}
								JOINT RightHandPinky1
								{
									OFFSET -10.518692 -0.960396 -5.730441
									CHANNELS 3 Xrotation Yrotation Zrotation
									JOINT RightHandPinky2
									{
										OFFSET -2.861649 0.000000 0.000000
										CHANNELS 3 Xrotation Yrotation Zrotation
										JOINT RightHandPinky3
										{
											OFFSET -2.863380 0.000000 0.000000
											CHANNELS 3 Xrotation Yrotation Zrotation
											End Site
											{
												OFFSET 0.843597 2.711159 0.369971
											}
										}
									}
								}
							}
							JOINT RSleeve
							{
								OFFSET -6.676277 -0.344902 -1.011730
								CHANNELS 3 Xrotation Yrotation Zrotation
								End Site
								{
									OFFSET 0.000000 14.885353 0.000000
								}
							}
						}
					}
				}
				JOINT Backpack
				{
					OFFSET 0.000000 -2.471497 36.677502
					CHANNELS 3 Xrotation Yrotation Zrotation
					End Site
					{
						OFFSET 0.000000 20.427315 0.000000
					}
				}
				JOINT Hood
				{
					OFFSET 0.000000 18.754097 -10.431000
					CHANNELS 3 Xrotation Yrotation Zrotation
					JOINT Hood1
					{
						OFFSET 0.000000 -5.011002 -7.685901
						CHANNELS 3 Xrotation Yrotation Zrotation
						End Site
						{
							OFFSET 0.000000 9.175140 0.000000
						}
					}
				}
				JOINT LHoodieString
				{
					OFFSET 5.250500 16.397697 3.089900
					CHANNELS 3 Xrotation Yrotation Zrotation
					JOINT LHoodieString1
					{
						OFFSET 0.257700 -6.364304 3.694600
						CHANNELS 3 Xrotation Yrotation Zrotation
						JOINT LHoodieString2
						{
							OFFSET 0.000000 -9.643799 2.679100
							CHANNELS 3 Xrotation Yrotation Zrotation
							End Site
							{
								OFFSET 0.000000 10.009018 0.000000
							}
						}
					}
				}
				JOINT RHoodieString
				{
					OFFSET -5.250500 16.397697 3.089900
					CHANNELS 3 Xrotation Yrotation Zrotation
					JOINT RHoodieString1
					{
						OFFSET -0.257700 -6.364304 3.694600
						CHANNELS 3 Xrotation Yrotation Zrotation
						JOINT RHoodieString2
						{
							OFFSET 0.000000 -9.643799 2.679100
							CHANNELS 3 Xrotation Yrotation Zrotation
							End Site
							{
								OFFSET 0.000000 10.009018 0.000000
							}
						}
					}
				}
			}
			JOINT LBackpack_Strap
			{
				OFFSET 15.223200 -7.719803 -6.610900
				CHANNELS 3 Xrotation Yrotation Zrotation
				End Site
				{
					OFFSET 0.000000 16.040596 0.000000
				}
			}
			JOINT RBackpack_Strap
			{
				OFFSET -15.223000 -7.719803 -6.610900
				CHANNELS 3 Xrotation Yrotation Zrotation
				End Site
				{
					OFFSET 0.000000 16.040596 0.000000
				}
			}
		}
	}
	JOINT BoyFacialAnim_Joint
	{
		OFFSET 1.000000 -82.208099 -1.550900
		CHANNELS 3 Xrotation Yrotation Zrotation
		End Site
		{
			OFFSET 0.000000 30.012791 0.000000
		}
	}
}
MOTION
Frames: 4
Frame Time: 0.033333
-0.169120 73.868393 0.175031 3.016504 -58.257334 6.570149 -0.000000 0.000004 -0.000000 -35.247871 10.179463 24.280037 43.157039 -7.473790 -9.787594 -9.604537 -2.815567 -8.045219 0.000000 -0.000000 -0.000000 0.000000 -0.000000 -0.000000 -0.000000 0.000000 0.000000 -32.836759 -8.277243 -25.536303 48.053086 2.410483 -7.553222 -19.169518 2.844909 20.706238 -0.000000 0.000000 0.000000 -0.000000 0.000000 0.000000 -0.000001 -0.000000 -0.000002 11.191572 0.111618 -2.787684 8.434591 0.027671 -5.592319 8.457049 0.027881 -5.591867 -21.555681 25.063309 12.062661 -0.293969 25.465843 -3.208994 0.000000 -0.000000 -0.000000 0.000000 -0.000000 -0.000000 0.000000 -0.000000 -0.000000 -6.221653 -11.503801 -4.023768 -23.062240 9.568434 -36.639658 0.046175 -43.168974 -0.011110 22.743741 -5.685966 15.979321 -1.064237 -7.954951 8.490043 2.373401 19.986136 -2.038294 0.000000 0.000000 0.000001 13.340866 -1.006690 10.682259 -0.167578 0.303335 -31.105648 0.000000 0.000001 0.000002 8.495429 -0.329566 -0.915344 0.231525 0.661263 -29.901837 -0.000000 -0.000000 -0.000001 6.111749 3.150896 -16.210954 0.047063 0.322428 -30.125502 -0.000000 -0.000001 -0.000006 -5.636019 7.709908 -13.878615 0.224363 0.276548 -46.588351 -0.000001 -0.000000 -0.000002 0.000003 -0.000002 0.000004 -5.488243 10.658297 2.466462 -41.473875 -26.755589 30.079030 24.955618 111.862892 -23.308623 -8.702513 12.423126 -9.801911 0.265016 10.061087 -10.888476 1.383794 -17.412835 3.016248 0.000001 -0.000000 0.000001 19.443595 11.174433 -13.340175 -0.118667 -0.322698 18.035565 -0.000002 0.000000 0.000004 4.320468 2.436971 -4.811706 0.349136 -0.461253 26.890316 -0.000002 -0.000000 -0.000004 -7.005612 -10.695199 5.719842 0.111880 -0.089174 26.155866 0.000002 0.000001 0.000006 -19.433515 -20.238252 5.987889 0.223787 -0.085782 36.844574 -0.000003 -0.000002 -0.000000 -0.000001 0.000001 -0.000003 -0.000002 -0.000001 -0.000000 -0.000002 -0.000001 -0.000000 -0.000002 -0.000001 -0.000000 -0.000002 -0.000001 -0.000000 -0.000002 -0.000001 -0.000000 -0.000003 -0.000002 0.000001 -0.000002 -0.000001 -0.000000 -0.000002 -0.000001 -0.000000 -0.000003 -0.000002 0.000001 0.000002 -0.000000 -0.000001 0.000002 -0.000000 -0.000001 -0.000000 0.000004 -0.000000 
-0.134330 73.879883 0.194030 2.971879 -58.257996 6.508386 -0.000000 0.000004 -0.000000 -35.357212 10.375928 24.169768 43.247286 -7.555463 -9.425654 -9.634544 -2.805532 -8.116969 -0.000000 0.000002 -0.000000 -0.000000 0.000002 -0.000000 0.000001 -0.000003 0.000001 -32.853743 -8.345174 -25.788072 48.013672 2.673075 -7.198564 -19.106437 2.900972 20.494392 -0.000000 -0.000000 -0.000000 -0.000000 -0.000000 -0.000000 0.000000 -0.000000 0.000004 11.191538 0.111590 -2.787660 8.434595 0.027700 -5.592327 8.457059 0.027878 -5.591872 -21.556880 25.063236 12.062751 -0.293156 25.465594 -3.208523 -0.000000 -0.000000 -0.000001 -0.000000 -0.000000 -0.000001 -0.000000 -0.000000 -0.000001 -6.224052 -11.496944 -4.035619 -23.062229 9.568447 -36.639717 0.046619 -43.168906 -0.010834 22.459130 -5.665744 16.386682 -1.040636 -7.816480 8.542203 2.416153 20.115587 -1.991885 0.000001 0.000002 -0.000001 13.341307 -1.007150 10.533382 -0.167392 0.303472 -31.254495 -0.000001 0.000001 -0.000002 8.493043 -0.328094 -1.064142 0.232365 0.661686 -30.050694 0.000003 -0.000001 0.000004 6.110207 3.152620 -16.359579 0.047177 0.323374 -30.274315 0.000000 0.000000 -0.000005 -5.636653 7.710831 -14.026978 0.224928 0.277028 -46.737174 -0.000000 -0.000003 -0.000004 0.000002 -0.000000 -0.000001 -5.574077 10.625622 2.465855 -41.422423 -26.944837 30.184870 24.013704 111.791229 -22.894439 -8.841253 11.956748 -9.183852 0.245984 10.231493 -10.827592 1.337730 -17.288428 3.064012 0.000001 -0.000004 0.000003 19.450333 11.216532 -13.488760 -0.118810 -0.322586 17.889850 0.000002 0.000003 -0.000003 4.322842 2.449323 -4.956467 0.348299 -0.460701 26.744570 0.000001 0.000002 -0.000005 -7.004411 -10.693906 5.572913 0.111874 -0.088218 26.010122 -0.000001 0.000002 0.000003 -19.432173 -20.233221 5.840495 0.223313 -0.085261 36.698825 -0.000001 0.000000 0.000000 -0.000001 0.000001 0.000003 -0.000001 0.000001 -0.000002 -0.000001 0.000001 -0.000002 -0.000001 0.000001 -0.000002 -0.000001 0.000001 -0.000002 -0.000001 0.000001 -0.000002 -0.000001 0.000000 -0.000003 -0.000001 0.000001 -0.000002 -0.000001 0.000001 -0.000002 -0.000001 0.000000 -0.000003 0.000003 0.000001 -0.000001 0.000003 0.000001 -0.000001 -0.000000 0.000004 -0.000000 
-0.297508 73.918831 0.322729 2.907771 -58.239500 6.408854 -0.000000 0.000000 -0.000000 -35.237981 10.709979 24.342999 43.173185 -7.934210 -9.420566 -9.787332 -2.807421 -8.014424 -0.000000 -0.000001 0.000000 -0.000000 -0.000001 0.000000 0.000000 0.000000 -0.000000 -32.566356 -8.514389 -25.978862 47.834188 2.885748 -6.916956 -19.207228 2.907844 20.373886 0.000000 -0.000000 -0.000000 0.000000 -0.000000 -0.000000 0.000003 0.000000 0.000000 11.191519 0.111194 -2.789218 8.434581 0.027729 -5.592325 8.457062 0.027823 -5.591858 -21.556173 25.063379 12.062446 -0.293733 25.465612 -3.208563 0.000000 0.000000 -0.000001 0.000000 0.000000 -0.000001 0.000000 0.000000 -0.000001 -6.236153 -11.442520 -4.118072 -23.062260 9.568458 -36.639686 0.047148 -43.168855 -0.010414 22.213636 -5.750933 16.801091 -0.979566 -7.435381 8.683722 2.540311 20.466858 -1.862381 0.000001 0.000001 -0.000001 13.342595 -1.008547 10.125068 -0.166921 0.303744 -31.662841 -0.000000 0.000001 -0.000005 8.486531 -0.324119 -1.472476 0.234625 0.663045 -30.459048 0.000000 0.000001 0.000002 6.108769 3.157323 -16.767730 0.047392 0.326165 -30.682688 -0.000000 -0.000003 0.000001 -5.638365 7.713366 -14.434037 0.226512 0.278408 -47.145521 -0.000000 0.000001 -0.000002 0.000000 0.000000 -0.000001 -5.640758 10.295139 2.471592 -41.079384 -27.164262 30.323147 21.341128 111.519538 -20.940435 -8.958322 11.000977 -8.637019 0.183253 10.692006 -10.653852 1.210902 -16.950764 3.194800 -0.000001 -0.000005 0.000001 19.475154 11.330953 -13.893704 -0.119156 -0.322224 17.493547 -0.000001 0.000003 0.000002 4.330808 2.484162 -5.350082 0.346148 -0.459228 26.348302 -0.000001 0.000004 0.000000 -7.000902 -10.686195 5.174904 0.111824 -0.085606 25.613855 -0.000003 0.000000 0.000002 -19.415390 -20.218325 5.446731 0.221970 -0.083715 36.302599 -0.000002 -0.000003 -0.000002 -0.000003 -0.000002 0.000003 -0.000000 -0.000002 -0.000000 -0.000000 -0.000002 -0.000000 -0.000000 -0.000002 -0.000000 -0.000000 -0.000002 -0.000000 -0.000000 -0.000002 0.000001 -0.000000 -0.000001 0.000002 -0.000000 -0.000002 -0.000000 -0.000000 -0.000002 0.000001 -0.000000 -0.000001 0.000002 0.000001 0.000000 -0.000000 0.000001 0.000000 -0.000000 -0.000000 0.000000 -0.000000 
-1.021287 73.994629 0.760571 2.634306 -58.193526 5.998729 -0.000000 0.000000 -0.000000 -34.449770 11.068907 24.995301 42.994825 -8.699527 -9.912099 -10.489691 -2.790356 -7.783898 0.000000 -0.000002 0.000000 0.000000 -0.000002 0.000000 0.000000 0.000002 -0.000001 -31.482131 -9.153139 -26.096840 47.390042 3.220704 -6.742195 -19.817374 2.800336 20.357548 -0.000000 -0.000002 -0.000000 -0.000000 -0.000002 -0.000000 -0.000001 -0.000002 0.000001 10.870494 0.116453 -2.704496 7.816247 0.028086 -5.588571 7.896576 0.026827 -5.566176 -21.341100 25.110256 11.563002 1.619932 24.896340 -2.324678 0.000001 -0.000000 0.000000 0.000001 -0.000000 0.000000 0.000001 -0.000000 0.000000 -6.348084 -11.279125 -4.709468 -22.887307 9.376571 -36.702824 0.142001 -42.972675 0.055740 22.079881 -5.988207 16.968666 -0.889027 -6.862065 8.895729 2.723605 20.994460 -1.663944 -0.000002 -0.000000 -0.000001 13.344488 -1.010658 9.511133 -0.166204 0.304142 -32.277019 -0.000003 0.000000 -0.000000 8.480559 -0.317993 -2.086534 0.238063 0.664996 -31.073256 -0.000000 -0.000001 -0.000002 6.106582 3.164403 -17.381481 0.047790 0.330330 -31.296794 0.000001 -0.000001 -0.000002 -5.640919 7.717154 -15.046340 0.228966 0.280418 -47.759708 -0.000001 0.000001 -0.000000 -0.000000 0.000001 0.000003 -5.664233 9.206015 2.496372 -39.656375 -26.999659 30.736620 16.894551 111.196894 -17.245311 -9.040467 9.915043 -8.163143 0.088019 11.376650 -10.394451 1.026669 -16.451262 3.398804 -0.000001 -0.000003 0.000001 19.516005 11.501298 -14.495482 -0.119699 -0.321689 16.904788 0.000000 -0.000001 -0.000002 4.345185 2.531187 -5.935423 0.343735 -0.456962 25.759507 0.000001 0.000002 -0.000002 -6.986044 -10.671008 4.587056 0.111845 -0.082425 25.025096 -0.000001 0.000001 0.000004 -19.392321 -20.198285 4.861478 0.220059 -0.081378 35.713772 -0.000001 0.000002 0.000001 0.000002 0.000001 -0.000001 0.000001 0.000001 -0.000001 0.000001 0.000001 -0.000001 0.000001 0.000001 -0.000001 0.000001 0.000001 -0.000001 0.000001 0.000001 -0.000001 -0.000001 0.000001 -0.000001 0.000001 0.000001 -0.000001 0.000001 0.000001 -0.000001 -0.000001 0.000001 -0.000001 0.000002 0.000000 -0.000000 0.000002 0.000000 -0.000000 -0.000000 0.000000 -0.000000 
